<?xml version="1.0" encoding="UTF-8"?>
<svg xmlns="http://www.w3.org/2000/svg" viewBox="0 0 120 120" width="512" height="512">
  <defs>
    <radialGradient id="body" cx="35%" cy="30%" r="90%">
      <stop offset="0%" stop-color="#8B3FA0" />
      <stop offset="70%" stop-color="#5B2A86" />
      <stop offset="100%" stop-color="#3E1A60" />
    </radialGradient>
    <radialGradient id="pulp" cx="50%" cy="30%" r="70%">
      <stop offset="0%" stop-color="#FFD085" />
      <stop offset="100%" stop-color="#FFB84D" />
    </radialGradient>
  </defs>
  <rect width="120" height="120" fill="none" />
  <circle cx="60" cy="66" r="42" fill="url(#body)" />
  <ellipse cx="46" cy="48" rx="10" ry="8" fill="#FFF4E0" opacity="0.45" />
  <path d="M54 22 C48 12, 38 14, 36 24 C42 26, 50 26, 54 22 Z" fill="#7FB685" />
  <path d="M60 18 C64 6, 76 10, 78 22 C70 26, 62 24, 60 18 Z" fill="#95C79A" />
  <rect x="57" y="20" width="5" height="10" rx="2" fill="#5E8A63" />
  <ellipse cx="60" cy="86" rx="18" ry="12" fill="url(#pulp)" />
  <circle cx="54" cy="86" r="1.5" fill="#2A1810" />
  <circle cx="60" cy="90" r="1.5" fill="#2A1810" />
  <circle cx="66" cy="84" r="1.5" fill="#2A1810" />
  <circle cx="62" cy="82" r="1.2" fill="#2A1810" />
  <circle cx="58" cy="92" r="1.2" fill="#2A1810" />
  <circle cx="50" cy="58" r="6" fill="#FFFFFF" />
  <circle cx="70" cy="58" r="6" fill="#FFFFFF" />
  <circle cx="51" cy="60" r="3.2" fill="#1A0F30" />
  <circle cx="71" cy="60" r="3.2" fill="#1A0F30" />
  <circle cx="52" cy="58" r="1.2" fill="#FFFFFF" />
  <circle cx="72" cy="58" r="1.2" fill="#FFFFFF" />
  <path d="M54 72 Q60 76 66 72" stroke="#2A1020" stroke-width="2" stroke-linecap="round" fill="none" />
</svg>
